<svg id="Layer_1" data-name="Layer 1" xmlns="http://www.w3.org/2000/svg" viewBox="0 0 512 512"><defs><style>.cls-1{fill:#9aa9b7;}.cls-2{fill:#dfe4ea;}.cls-3{fill:#f4607f;}.cls-4{fill:#bfc9d1;}.cls-5{opacity:0.1;}.cls-6{fill:#231f20;}.cls-7{fill:#dd5e5e;}</style></defs><title>house-flat</title><polygon class="cls-1" points="422.4 260.7 422.4 147.2 345.6 147.2 345.6 223.97 422.4 260.7"/><path class="cls-2" d="M422.4,268.8v224A19.17,19.17,0,0,1,403.2,512H108.8a19.17,19.17,0,0,1-19.2-19.2v-224a19.15,19.15,0,0,1,10.94-17.34l147.2-70.4a19.29,19.29,0,0,1,16.51,0l147.2,70.4A19.15,19.15,0,0,1,422.4,268.8Z"/><path class="cls-3" d="M431.8,56.52a32.85,32.85,0,0,0,0-46.81,33.69,33.69,0,0,0-47.32,0l-.47.47-.47-.47a33.71,33.71,0,0,0-47.32,0,32.83,32.83,0,0,0,0,46.81L384,102.4Z"/><rect class="cls-4" x="211.2" y="371.2" width="89.6" height="140.8"/><g class="cls-5"><path class="cls-6" d="M422.4,268.8v224A19.17,19.17,0,0,1,403.2,512H256V179.2a19.66,19.66,0,0,1,8.26,1.86l147.2,70.4A19.15,19.15,0,0,1,422.4,268.8Z"/></g><polygon class="cls-7" points="448.44 311.72 256 219.68 63.56 311.72 46.99 277.08 256 177.12 465.01 277.08 448.44 311.72"/></svg>